<svg width="10" height="10" viewBox="0 0 10 10" fill="none" xmlns="http://www.w3.org/2000/svg">
<path d="M9.57167 9.04709L7.73409 7.16436C8.32697 6.3882 8.64867 5.42973 8.64748 4.44301C8.64748 3.56427 8.39389 2.70526 7.91879 1.97461C7.4437 1.24396 6.76842 0.674487 5.97836 0.338206C5.1883 0.00192507 4.31894 -0.0860614 3.48022 0.0853732C2.6415 0.256808 1.87108 0.679964 1.2664 1.30133C0.66171 1.9227 0.249914 2.71437 0.0830813 3.57623C-0.083751 4.43809 0.00187339 5.33143 0.329127 6.14328C0.65638 6.95514 1.21056 7.64904 1.9216 8.13724C2.63263 8.62545 3.46858 8.88603 4.32374 8.88603C5.28396 8.88725 6.2167 8.55668 6.97203 7.94744L8.80421 9.83572C8.85445 9.88777 8.91423 9.92909 8.98009 9.95729C9.04595 9.98548 9.11659 10 9.18794 10C9.25929 10 9.32993 9.98548 9.39579 9.95729C9.46165 9.92909 9.52143 9.88777 9.57167 9.83572C9.62233 9.78409 9.66254 9.72267 9.68998 9.65499C9.71742 9.58731 9.73154 9.51472 9.73154 9.4414C9.73154 9.36809 9.71742 9.2955 9.68998 9.22782C9.66254 9.16014 9.62233 9.09872 9.57167 9.04709ZM1.08094 4.44301C1.08094 3.78396 1.27112 3.1397 1.62745 2.59171C1.98377 2.04372 2.49023 1.61662 3.08277 1.36441C3.67532 1.1122 4.32734 1.04621 4.95638 1.17478C5.58542 1.30336 6.16323 1.62073 6.61675 2.08675C7.07026 2.55278 7.37911 3.14653 7.50423 3.79292C7.62936 4.43932 7.56514 5.10932 7.3197 5.71821C7.07426 6.32711 6.65862 6.84753 6.12534 7.21369C5.59207 7.57984 4.9651 7.77527 4.32374 7.77527C3.46369 7.77527 2.63887 7.4242 2.03073 6.79928C1.42259 6.17436 1.08094 5.32678 1.08094 4.44301Z" fill="#7C7C7C" fill-opacity="0.8"/>
</svg>
