<svg width="95" height="28" viewBox="0 0 95 28" fill="none" xmlns="http://www.w3.org/2000/svg">
<g filter="url(#filter0_d_3_11)">
<path d="M7.77273 16H4.36364L8.20455 4.36364H12.5227L16.3636 16H12.9545L10.4091 7.56818H10.3182L7.77273 16ZM7.13636 11.4091H13.5455V13.7727H7.13636V11.4091ZM17.4844 16V4.36364H22.5071C23.3707 4.36364 24.1264 4.53409 24.7741 4.875C25.4219 5.21591 25.9257 5.69508 26.2855 6.3125C26.6454 6.92992 26.8253 7.65151 26.8253 8.47727C26.8253 9.31061 26.6397 10.0322 26.2685 10.642C25.901 11.2519 25.384 11.7216 24.7173 12.0511C24.0545 12.3807 23.2798 12.5455 22.3935 12.5455H19.3935V10.0909H21.7571C22.1283 10.0909 22.4446 10.0265 22.706 9.89773C22.9711 9.76515 23.1738 9.57765 23.3139 9.33523C23.4579 9.0928 23.5298 8.80682 23.5298 8.47727C23.5298 8.14394 23.4579 7.85985 23.3139 7.625C23.1738 7.38636 22.9711 7.20455 22.706 7.07955C22.4446 6.95076 22.1283 6.88636 21.7571 6.88636H20.6435V16H17.4844ZM34.2571 8C34.2268 7.62121 34.0848 7.32576 33.831 7.11364C33.581 6.90151 33.2003 6.79545 32.6889 6.79545C32.3632 6.79545 32.0961 6.83523 31.8878 6.91477C31.6832 6.99053 31.5317 7.0947 31.4332 7.22727C31.3348 7.35985 31.2836 7.51136 31.2798 7.68182C31.2723 7.82197 31.2969 7.94886 31.3537 8.0625C31.4143 8.17235 31.509 8.27273 31.6378 8.36364C31.7666 8.45076 31.9313 8.5303 32.1321 8.60227C32.3329 8.67424 32.5715 8.73864 32.848 8.79545L33.8026 9C34.4465 9.13636 34.9976 9.31629 35.456 9.53977C35.9143 9.76326 36.2893 10.0265 36.581 10.3295C36.8726 10.6288 37.0866 10.9659 37.223 11.3409C37.3632 11.7159 37.4351 12.125 37.4389 12.5682C37.4351 13.3333 37.2438 13.9811 36.8651 14.5114C36.4863 15.0417 35.9446 15.4451 35.2401 15.7216C34.5393 15.9981 33.6965 16.1364 32.7116 16.1364C31.7003 16.1364 30.8177 15.9867 30.0639 15.6875C29.3139 15.3883 28.7306 14.928 28.3139 14.3068C27.901 13.6818 27.6927 12.8826 27.6889 11.9091H30.6889C30.7079 12.2652 30.7969 12.5644 30.956 12.8068C31.1151 13.0492 31.3385 13.233 31.6264 13.358C31.9181 13.483 32.2647 13.5455 32.6662 13.5455C33.0033 13.5455 33.2855 13.5038 33.5128 13.4205C33.7401 13.3371 33.9124 13.2216 34.0298 13.0739C34.1473 12.9261 34.2079 12.7576 34.2116 12.5682C34.2079 12.3902 34.1491 12.2348 34.0355 12.1023C33.9257 11.9659 33.7438 11.8447 33.4901 11.7386C33.2363 11.6288 32.8935 11.5265 32.4616 11.4318L31.3026 11.1818C30.2723 10.9583 29.4598 10.5852 28.8651 10.0625C28.2741 9.53598 27.9806 8.81818 27.9844 7.90909C27.9806 7.17045 28.1776 6.52462 28.5753 5.97159C28.9768 5.41477 29.5317 4.98106 30.2401 4.67045C30.9522 4.35985 31.7685 4.20455 32.6889 4.20455C33.6283 4.20455 34.4408 4.36174 35.1264 4.67614C35.812 4.99053 36.3404 5.43371 36.7116 6.00568C37.0866 6.57386 37.276 7.23864 37.2798 8H34.2571ZM45.527 4.36364H48.6861V11.8182C48.6861 12.7045 48.474 13.4716 48.0497 14.1193C47.6293 14.7633 47.0421 15.2614 46.2884 15.6136C45.5346 15.9621 44.6596 16.1364 43.6634 16.1364C42.6596 16.1364 41.7808 15.9621 41.027 15.6136C40.2732 15.2614 39.6861 14.7633 39.2656 14.1193C38.849 13.4716 38.6406 12.7045 38.6406 11.8182V4.36364H41.7997V11.5455C41.7997 11.9053 41.8793 12.2273 42.0384 12.5114C42.1974 12.7917 42.4171 13.0114 42.6974 13.1705C42.9815 13.3295 43.3035 13.4091 43.6634 13.4091C44.027 13.4091 44.349 13.3295 44.6293 13.1705C44.9096 13.0114 45.1293 12.7917 45.2884 12.5114C45.4474 12.2273 45.527 11.9053 45.527 11.5455V4.36364ZM54.2102 0.613636V19.75H51.142V0.613636H54.2102ZM56.6719 4.36364H60.6037L63.3082 10.9545H63.4446L66.1491 4.36364H70.081V16H66.9901V9.27273H66.8991L64.3082 15.9091H62.4446L59.8537 9.22727H59.7628V16H56.6719V4.36364ZM71.5781 16V4.36364H79.9645V6.90909H74.7372V8.90909H79.5327V11.4545H74.7372V13.4545H79.9418V16H71.5781ZM87.804 8C87.7737 7.62121 87.6316 7.32576 87.3778 7.11364C87.1278 6.90151 86.7472 6.79545 86.2358 6.79545C85.91 6.79545 85.643 6.83523 85.4347 6.91477C85.2301 6.99053 85.0786 7.0947 84.9801 7.22727C84.8816 7.35985 84.8305 7.51136 84.8267 7.68182C84.8191 7.82197 84.8438 7.94886 84.9006 8.0625C84.9612 8.17235 85.0559 8.27273 85.1847 8.36364C85.3134 8.45076 85.4782 8.5303 85.679 8.60227C85.8797 8.67424 86.1184 8.73864 86.3949 8.79545L87.3494 9C87.9934 9.13636 88.5445 9.31629 89.0028 9.53977C89.4612 9.76326 89.8362 10.0265 90.1278 10.3295C90.4195 10.6288 90.6335 10.9659 90.7699 11.3409C90.91 11.7159 90.982 12.125 90.9858 12.5682C90.982 13.3333 90.7907 13.9811 90.4119 14.5114C90.0331 15.0417 89.4915 15.4451 88.7869 15.7216C88.0862 15.9981 87.2434 16.1364 86.2585 16.1364C85.2472 16.1364 84.3646 15.9867 83.6108 15.6875C82.8608 15.3883 82.2775 14.928 81.8608 14.3068C81.4479 13.6818 81.2396 12.8826 81.2358 11.9091H84.2358C84.2547 12.2652 84.3438 12.5644 84.5028 12.8068C84.6619 13.0492 84.8854 13.233 85.1733 13.358C85.465 13.483 85.8116 13.5455 86.2131 13.5455C86.5502 13.5455 86.8324 13.5038 87.0597 13.4205C87.2869 13.3371 87.4593 13.2216 87.5767 13.0739C87.6941 12.9261 87.7547 12.7576 87.7585 12.5682C87.7547 12.3902 87.696 12.2348 87.5824 12.1023C87.4725 11.9659 87.2907 11.8447 87.0369 11.7386C86.7831 11.6288 86.4403 11.5265 86.0085 11.4318L84.8494 11.1818C83.8191 10.9583 83.0066 10.5852 82.4119 10.0625C81.821 9.53598 81.5275 8.81818 81.5312 7.90909C81.5275 7.17045 81.7244 6.52462 82.1222 5.97159C82.5237 5.41477 83.0786 4.98106 83.7869 4.67045C84.4991 4.35985 85.3153 4.20455 86.2358 4.20455C87.1752 4.20455 87.9877 4.36174 88.6733 4.67614C89.3589 4.99053 89.8873 5.43371 90.2585 6.00568C90.6335 6.57386 90.8229 7.23864 90.8267 8H87.804Z" fill="black"/>
</g>
<defs>
<filter id="filter0_d_3_11" x="0.363647" y="0.613632" width="94.6221" height="27.1364" filterUnits="userSpaceOnUse" color-interpolation-filters="sRGB">
<feFlood flood-opacity="0" result="BackgroundImageFix"/>
<feColorMatrix in="SourceAlpha" type="matrix" values="0 0 0 0 0 0 0 0 0 0 0 0 0 0 0 0 0 0 127 0" result="hardAlpha"/>
<feOffset dy="4"/>
<feGaussianBlur stdDeviation="2"/>
<feComposite in2="hardAlpha" operator="out"/>
<feColorMatrix type="matrix" values="0 0 0 0 0 0 0 0 0 0 0 0 0 0 0 0 0 0 0.25 0"/>
<feBlend mode="normal" in2="BackgroundImageFix" result="effect1_dropShadow_3_11"/>
<feBlend mode="normal" in="SourceGraphic" in2="effect1_dropShadow_3_11" result="shape"/>
</filter>
</defs>
</svg>
